<svg height="512" viewBox="0 0 30 58" width="512" xmlns="http://www.w3.org/2000/svg"><g id="Page-1" fill="none" fill-rule="evenodd"><g id="016---DNA" fill="rgb(0,0,0)" fill-rule="nonzero"><path id="Shape" d="m0 2c0-1.1045695.8954305-2 2-2s2 .8954305 2 2c0 4.93 3.965 8.5 8.33 10.71-1.510789.5922694-2.97778436 1.2906795-4.39 2.09-3.83-2.49-7.94-6.61-7.94-12.8z"/><path id="Shape" d="m7.94 43.2c1.41221564.7993205 2.879211 1.4977306 4.39 2.09-4.37 2.21-8.33 5.781-8.33 10.71 0 1.1045695-.8954305 2-2 2s-2-.8954305-2-2c0-6.19 4.11-10.31 7.94-12.8z"/><path id="Shape" d="m30 29c0 5.64-4.1 9.51-7.92 11.88-1.401351-.8240135-2.8620464-1.5426623-4.37-2.15 11.06-5.434 11.094-14.009 0-19.46 1.5079536-.6073377 2.968649-1.3259865 4.37-2.15 3.82 2.37 7.92 6.24 7.92 11.88z"/><path id="Shape" d="m24 29c.0048912.2414272-.0152159.4827124-.06.72-.0118096.0941358-.0284988.1875949-.05.28h-17.79c-.13333333-.66-.13333333-1.34 0-2h17.79l.06.36c.0397878.210894.0565527.4254856.05.64z"/><path id="Shape" d="m24 2c-.0006422.67782678-.1017406 1.3518158-.3 2h-17.4c-.05-.16-.09-.32-.13-.49-.06125435-.24318067-.10470278-.49050253-.13-.74-.02854167-.25565038-.04189844-.51276831-.04017721-.77z"/><path id="Shape" d="m22.02 7c-.6386847.74230856-1.3562405 1.41292148-2.14 2h-9.74c-.56806167-.42177627-1.10296147-.88647047-1.6-1.39-.21-.22-.39-.42-.56-.61z"/><path id="Shape" d="m24 56h-18.00013135c-.0016688-.2741469.01503583-.5481028.05013135-.82.02404128-.2496696.06750625-.4970856.13-.74.0293704-.1493607.06947443-.2964088.12-.44h17.4c.1982594.6481842.2993578 1.3221732.3 2z"/><path id="Shape" d="m22.02 51h-14.04c.15-.18.34-.38.55-.6.49919042-.5043042 1.03389446-.9721702 1.6-1.4h9.75c.7837595.5870785 1.5013153 1.2576914 2.14 2z"/><path id="Shape" d="m22.31 25h-14.61c.66276553-.7477012 1.40743578-1.4185753 2.22-2h10.16c.6096119.4308883 1.1816542.9126082 1.71 1.44.1854557.1750322.359166.3621048.52.56z"/><path id="Shape" d="m22.31 33c-.1697143.2026605-.3499629.3962608-.54.58-.524336.5178944-1.0894929.99276-1.69 1.42h-10.16c-.81256422-.5814247-1.55723447-1.2522988-2.22-2z"/><path id="Shape" d="m0 29c0 10.358 13.823 14.73 14.412 14.912.115.035 11.588 3.663 11.588 12.088 0 1.1045695.8954305 2 2 2s2-.8954305 2-2c0-11.347-13.823-15.73-14.409-15.911-.116-.036-11.591-3.684-11.591-11.089s11.475-11.053 11.591-11.089c.586-.181 14.409-4.564 14.409-15.911 0-1.1045695-.8954305-2-2-2s-2 .8954305-2 2c0 8.425-11.473 12.053-11.588 12.088-.589.182-14.412 4.554-14.412 14.912z"/></g></g></svg>