<svg enable-background="new 0 0 512 512" height="512" viewBox="0 0 512 512" width="512" xmlns="http://www.w3.org/2000/svg"><g id="_x30_8_Father"><g><path d="m256 235.382c16.497 19.735 39.742 16.933 50.678 6.095 1.221-1.21.338-3.271-1.374-3.282-7.73-.087-15.428-2.628-21.643-7.24 1.341.12 2.878-.011 4.339-.382 1.941-.48 1.995-3.205.076-3.74-6.782-1.897-12.026-5.855-15.624-9.453-5.343-5.342-12.136-4.22-16.453-.316-4.318-3.903-11.11-5.026-16.453.316-3.598 3.598-8.842 7.556-15.624 9.453-1.919.534-1.864 3.26.076 3.74 1.461.371 2.998.502 4.339.382-6.215 4.612-13.913 7.153-21.643 7.24-1.712.011-2.595 2.072-1.374 3.282 10.938 10.838 34.183 13.64 50.68-6.095z"/><path d="m438.32 326.884c-24.157-13.04-115.235-34.508-115.802-34.417l-8.835-19.951c13.39-15.396 20.216-31.854 24.351-51.928 26.233-7.484 46.066-56.778 37.639-80.19-2.106-5.851-5.801-10.205-10.819-12.996 13.433-95.452-35.405-122.225-108.855-122.225-56.443 0-116.347 16.561-106.042 121.021-6.433 2.618-11.153 7.339-13.624 14.203-7.534 20.928 7.661 55.249 18.12 66.216 8.693 9.119 15.129 12.714 19.498 13.966 4.667 22.783 12.613 38.588 24.667 52.32-4.145 9.063-2.57 5.577-9.073 19.569-.552-.092-91.261 21.132-115.865 34.413-38.694 20.835-59.384 89.895-59.384 138.067 0 23.125 18.747 41.871 41.871 41.871h399.665c23.125 0 41.871-18.747 41.871-41.871.001-48.912-20.781-117.163-59.383-138.068zm-254.333-111.981c-.384-2.713-2.705-4.699-5.401-4.699-5.086 0-12.758-7.44-16.251-11.102-8.608-9.028-21.463-39.15-15.753-55.012.041-.115.083-.229.126-.341 3.973-10.489 19.348-9.012 21.886 1.914 1.365 5.876 2.801 14.246 4.418 26.271.597 4.435 7.147 4.045 7.147-.43v-46.719c0-13.558 11.082-24.405 24.632-23.944 24.695.84 62.69-.796 88.705-15.638 13.833-7.892 31.515-.69 34.622 14.93 5.471 27.504 5.676 60.523 5.577 71.337-.043 4.708 7.87 4.887 8.342.417.634-5.999 2.175-19.165 4.358-28.798 1.3-5.736 7.688-8.905 12.974-6.327 2.345 1.144 4.561 3.176 6.055 7.325 5.707 15.86-7.148 45.984-15.754 55.015-14.348 15.045-15.368 9.421-19.248 11.999-1.292.848-2.165 2.207-2.393 3.734-.016.08-1.266 8.159-4.85 19.349-10.612 33.115-42.089 58.145-67.178 58.145-29.297-.001-67.174-33.871-72.014-77.426zm14.932 83.254c3.396-7.308 4.603-9.863 7.851-16.899 31.12 28.168 65.633 29.93 98.739-.293l7.586 17.139c-12.297 42.773-101.817 42.795-114.176.053z"/></g></g></svg>