<svg id="Capa_1" enable-background="new 0 0 512 512" height="512" viewBox="0 0 512 512" width="512" xmlns="http://www.w3.org/2000/svg"><g><path d="m511 165c0-91.127-73.873-165-165-165s-165 73.873-165 165c0 24.532 5.362 47.809 14.966 68.734 26.479-11.589 45.034-38.029 45.034-68.734 0-57.99 47.01-105 105-105s105 47.01 105 105-47.01 105-105 105c-5.08 0-10.073-.368-14.96-1.066-11.991 19.044-27.208 35.927-44.982 49.822 9.58 3.737 19.59 6.613 29.943 8.515v84.729h-30.938c-5.425 0-10.366 3.026-12.698 7.776-2.331 4.75-1.637 10.376 1.783 14.459l60.938 72.727c2.67 3.188 6.679 5.038 10.914 5.038s8.244-1.85 10.914-5.037l60.938-72.727c3.421-4.083 4.115-9.709 1.783-14.459-2.331-4.75-7.272-7.776-12.698-7.776h-30.937v-84.729c76.802-14.11 135-81.391 135-162.272z"/><path d="m226 407h-30v-79.729c76.802-14.109 135-81.39 135-162.271 0-24.532-5.361-47.809-14.964-68.735-26.48 11.589-45.036 38.029-45.036 68.735 0 57.99-47.01 105-105 105s-105-47.01-105-105 47.01-105 105-105c5.118 0 10.148.374 15.071 1.081 12.061-19.074 27.332-35.924 45.056-49.778-18.631-7.295-38.91-11.303-60.127-11.303-91.127 0-165 73.873-165 165 0 80.881 58.198 148.162 135 162.271v79.729h-30c-8.284 0-15 6.716-15 15v30c0 8.284 6.716 15 15 15h30v30c0 8.284 6.716 15 15 15h30c8.284 0 15-6.716 15-15v-30h30c8.284 0 15-6.716 15-15v-30c0-8.284-6.716-15-15-15z"/></g></svg>