<svg id="Layer_1" enable-background="new 0 0 512 512" height="512" viewBox="0 0 512 512" width="512" xmlns="http://www.w3.org/2000/svg"><g id="_x32_4_Comb"><path d="m506.24 438.219c-37.198 65.683-79.027 33.114-104.406-14.324-25.434-47.437-80.824-163.064-156.856-88.611 0 0-24.29 23.093-38.506 29.846-7.998 3.788-16.973-7.256-10.349-13.997l64.975-64.92c3.322-3.377 3.322-8.823 0-12.146-3.377-3.377-8.823-3.377-12.2 0l-64.92 64.92c-7.513 7.513-19.766-4.58-12.2-12.146l64.975-64.975c3.377-3.322 3.377-8.769 0-12.146s-8.823-3.377-12.146 0l-64.975 64.92c-7.499 7.63-19.654-4.636-12.146-12.146l64.92-64.92c3.377-3.377 3.377-8.823 0-12.2-3.322-3.323-8.769-3.323-12.146 0l-64.975 64.975c-7.502 7.502-19.668-4.545-12.146-12.2l64.92-64.92c3.377-3.377 3.377-8.823 0-12.146-3.323-3.377-8.769-3.377-12.146 0l-64.92 64.92c-7.513 7.513-19.766-4.579-12.2-12.146l64.975-64.975c3.322-3.322 3.322-8.769 0-12.146-3.377-3.377-8.823-3.377-12.2 0l-64.92 64.92c-7.529 7.529-19.684-4.608-12.146-12.146l64.92-64.92c3.377-3.377 3.377-8.823 0-12.2-3.377-3.322-8.824-3.322-12.146 0l-64.975 64.975c-7.571 7.571-19.656-4.689-12.146-12.2l64.92-64.92c3.377-3.377 3.377-8.823 0-12.146-3.322-3.377-8.769-3.377-12.146 0l-64.92 64.92c-7.512 7.513-19.767-4.579-12.2-12.146l64.975-64.975c3.323-3.377 3.323-8.769 0-12.146-3.385-3.385-8.767-3.434-12.2 0l-64.92 64.92c-6.76 6.76-17.308-1.977-12.418-9.803 14.71-23.96 75.383-119.978 105.174-122.048 34.04-2.396 118.785 104.461 201.896 181.255 83.115 76.849 235.123 154.406 197.924 220.143z"/></g></svg>