<svg id="b45ee349-5d47-4846-b7fa-957d4fca2b37" height="512" viewBox="0 0 64 64" width="512" xmlns="http://www.w3.org/2000/svg" data-name="glyph"><path d="m17.8504 24.3711a3.56844 3.56844 0 0 1 1.795-3.1062c2.48567-1.4212 6.94712-4.13667 9.42094-6.63311a8.04157 8.04157 0 0 1 -1.36279-2.93151.97617.97617 0 0 1 1.9218-.3431c.52155 2.2278 3.18652 4.97511 6.37327 6.43192 2.938.91027 9.20805 4.92472 10.02729 9.83557a13.90383 13.90383 0 0 0 1.74855-5.384 17.56332 17.56332 0 0 0 -.67655-7.2263c-4.23578-11.02083-13.16821-10.99144-13.49173-10.99144-14.82518-.65693-17.30589 13.02107-17.32552 13.15838-.65692 3.83374 1.57866 10.05015 1.57866 10.05015-.00532-.06946-.00778-1.53754-.00892-2.86036z"/><path d="m35.45935 40.5859a14.39183 14.39183 0 0 1 -8.88341-.64717v2.2552a1.49043 1.49043 0 0 1 -.95106 1.40212l-1.87274.74519a13.52 13.52 0 0 0 7.51063 3.03953 13.35985 13.35985 0 0 0 8.86372-3.08867c-1.004-.48652-2.725-.65179-2.70612-2.09816v-2.24539a14.77427 14.77427 0 0 1 -1.96102.63735z"/><path d="m56.58916 58.80365-.82365-3.6083a10.04418 10.04418 0 0 0 -6.0987-7.1184l-7.45181-2.96114c-2.91685 2.55413-6.76483 4.313-10.30509 4.24553a15.59145 15.59145 0 0 1 -10.2462-4.19651l-7.3342 2.91212a10.07857 10.07857 0 0 0 -6.10851 7.1184l-.81383 3.6083a.97817.97817 0 0 0 .1863.8334 1.00242 1.00242 0 0 0 .76482.36278h47.27971a.97915.97915 0 0 0 .95116-1.19618z"/><path d="m46.25463 30.10432c-.72269.1395-.60318.677-.84316 1.25508a14.06731 14.06731 0 0 1 -2.25521 4.21614 12.16811 12.16811 0 0 1 -1.43155 1.5786 8.09041 8.09041 0 0 0 3.10824.6079c4.83255.16135 9.17784-4.67869 7.94186-9.56983a8.36932 8.36932 0 0 0 -3.18645-4.922 15.16545 15.16545 0 0 1 -2.12768 5.75555 2.84942 2.84942 0 0 1 -1.20605 1.07856z"/><path d="m41.31292 34.74208a12.26124 12.26124 0 0 0 2.82385-6.78508c-1.1148-4.452-6.5075-7.55491-8.95211-8.38316a16.7432 16.7432 0 0 1 -4.8632-3.43188 37.86208 37.86208 0 0 1 -10.511 7.26538l.00006 3.41224c-.03873 11.32972 14.19704 16.54127 21.5024 7.9225z"/></svg>