<?xml version="1.0" encoding="iso-8859-1"?>
<!-- Generator: Adobe Illustrator 19.0.0, SVG Export Plug-In . SVG Version: 6.00 Build 0)  -->
<svg version="1.1" id="Capa_1" xmlns="http://www.w3.org/2000/svg" xmlns:xlink="http://www.w3.org/1999/xlink" x="0px" y="0px"
	 viewBox="0 0 426.667 426.667" style="enable-background:new 0 0 426.667 426.667;" xml:space="preserve">
<g>
	<g>
		<g>
			<path d="M392.533,192C384,108.8,317.867,42.667,234.667,32V0H192v32C108.8,42.667,42.667,108.8,34.133,192H0v42.667h32
				c10.667,83.2,76.8,149.333,157.867,157.867v34.133h42.667v-34.133c83.2-10.667,149.333-76.8,157.867-157.867h36.267V192H392.533z
				 M349.867,234.667c-8.533,59.733-55.467,106.667-115.2,115.2V320H192v29.867c-59.733-8.533-106.667-55.467-115.2-115.2h29.867
				V192H76.8C85.333,132.267,132.267,85.333,192,76.8v29.867h42.667V76.8c59.733,8.533,106.667,55.467,115.2,115.2H320v42.667
				H349.867z"/>
			<circle cx="213.333" cy="213.333" r="64"/>
		</g>
	</g>
</g>
<g>
</g>
<g>
</g>
<g>
</g>
<g>
</g>
<g>
</g>
<g>
</g>
<g>
</g>
<g>
</g>
<g>
</g>
<g>
</g>
<g>
</g>
<g>
</g>
<g>
</g>
<g>
</g>
<g>
</g>
</svg>
