<svg height="512" viewBox="0 0 24 24" width="512" xmlns="http://www.w3.org/2000/svg"><g id="Layer_2" data-name="Layer 2"><path d="m19.6 3.94a10.74 10.74 0 0 0 -9.37-3 10.74 10.74 0 0 0 -7.65 15.77.27.27 0 0 1 0 .19l-1.03 3.55a1.24 1.24 0 0 0 1.56 1.55l3.53-1.06a.3.3 0 0 1 .2 0 10.62 10.62 0 0 0 5.16 1.36 11.47 11.47 0 0 0 2.31-.24 10.76 10.76 0 0 0 5.29-18.12zm-11.6 9.31a1.25 1.25 0 1 1 1.25-1.25 1.25 1.25 0 0 1 -1.25 1.25zm4 0a1.25 1.25 0 1 1 1.25-1.25 1.25 1.25 0 0 1 -1.25 1.25zm4 0a1.25 1.25 0 1 1 1.25-1.25 1.25 1.25 0 0 1 -1.25 1.25z"/></g></svg>