<svg id="Layer_2" enable-background="new 0 0 32 32" height="512" viewBox="0 0 32 32" width="512" xmlns="http://www.w3.org/2000/svg"><path d="m11.333 14.334h-8.333c-1.654 0-3-1.346-3-3v-8.334c0-1.654 1.346-3 3-3h8.333c1.654 0 3 1.346 3 3v8.334c0 1.654-1.345 3-3 3zm17.667 0h-8.334c-1.654 0-3-1.346-3-3v-8.334c0-1.654 1.346-3 3-3h8.334c1.654 0 3 1.346 3 3v8.334c0 1.654-1.346 3-3 3zm-17.667 17.604h-8.333c-1.654 0-3-1.346-3-3v-8.334c0-1.654 1.346-3 3-3h8.333c1.654 0 3 1.346 3 3v8.334c0 1.654-1.345 3-3 3zm17.667 0h-8.334c-1.654 0-3-1.346-3-3v-8.334c0-1.654 1.346-3 3-3h8.334c1.654 0 3 1.346 3 3v8.334c0 1.654-1.346 3-3 3z"/></svg>