<svg id="OBJECT" height="512" viewBox="0 0 512 512" width="512" xmlns="http://www.w3.org/2000/svg"><path d="m450.59 320.82a7.5 7.5 0 0 0 -2.19-5.3l-15.29-15.29a29.15 29.15 0 0 0 -41.17 0l-91.71 91.71a29.15 29.15 0 0 0 0 41.17l15.29 15.29a7.51 7.51 0 0 0 10.6 0l122.28-122.28a7.5 7.5 0 0 0 2.19-5.3z"/><path d="m412.52 383.21-29.31 29.31 47.79 47.83a49.61 49.61 0 0 1 29.35-29.35z"/><path d="m501.91 453.09a34.5 34.5 0 1 0 0 48.82 34.56 34.56 0 0 0 0-48.82z"/><path d="m120.06 300.23a29.15 29.15 0 0 0 -41.17 0l-15.29 15.29a7.51 7.51 0 0 0 0 10.6l122.28 122.28a7.51 7.51 0 0 0 10.6 0l15.29-15.29a29.15 29.15 0 0 0 0-41.17z"/><path d="m51.65 431a49.61 49.61 0 0 1 29.35 29.35l47.82-47.83-29.34-29.31z"/><path d="m10.09 453.09a34.52 34.52 0 1 0 48.82 0 34.58 34.58 0 0 0 -48.82 0z"/><path d="m23.07 123.6a7.54 7.54 0 0 0 2.51 4.26l147.07 124.44 31.65-37.4-49.3-49.26a7.5 7.5 0 1 1 10.6-10.6l48.4 48.37 32.16-38-118.3-139.83a7.54 7.54 0 0 0 -4.26-2.51l-114.6-22.92a7.5 7.5 0 0 0 -8.85 8.85z"/><path d="m340.78 330.18 24.27-24.28-27.47-32.46-29 24.54z"/><path d="m330.18 340.78-33.08-33.08-29.49 24.95 38.3 32.4z"/><path d="m171.22 330.18 175.14-175.18a7.5 7.5 0 0 1 10.6 10.6l-175.14 175.18 24.27 24.27 280.33-237.19a7.54 7.54 0 0 0 2.51-4.26l22.92-114.6a7.5 7.5 0 0 0 -8.85-8.85l-114.6 22.92a7.54 7.54 0 0 0 -4.26 2.51l-237.14 280.33z"/></svg>