<svg id="svg2" enable-background="new 0 0 300 300" height="512" viewBox="0 0 300 300" width="512" xmlns="http://www.w3.org/2000/svg" xmlns:svg="http://www.w3.org/2000/svg"><path id="path8" clip-rule="evenodd" d="m291.9 148.3-129.9 109c-2.4 2-6 1.7-8-.7l-69.5-82.8c-2-2.4-1.7-6 .7-8l129.9-109c2.4-2 6-1.7 8 .7l69.5 82.8c2 2.4 1.7 6-.7 8zm-216.1 25.2 67.1 80c-1.3 0-2.5-.4-3.6-1.3l-82.8-69.5c-2.4-2-2.7-5.6-.7-8l109-129.9c2-2.4 5.6-2.7 8-.7l23.7 19.9-120 100.7c-2.6 2.1-3 6.1-.7 8.8zm-28 10.3 82.1 68.9c-1.6.8-3.6.8-5.3-.2l-93.6-54c-2.7-1.6-3.6-5-2.1-7.8l84.8-146.9c1.6-2.7 5-3.6 7.8-2.1l25.1 14.5-99.6 118.7c-2.2 2.7-1.9 6.7.8 8.9zm-25.1 17.3 93.2 53.8c-1.3.7-2.9.8-4.4.2l-101.5-37c-2.9-1.1-4.5-4.3-3.4-7.3l58-159.4c1.1-2.9 4.3-4.5 7.3-3.4l26.4 9.6-77.9 134.9c-1.8 3-.8 6.8 2.3 8.6z" fill-rule="evenodd"/></svg>