<svg height="512" viewBox="0 0 64 64" width="512" xmlns="http://www.w3.org/2000/svg"><g id="Discount_Coupon" data-name="Discount Coupon"><path d="m58.37 21.1-4.44-4.44a.09673.09673 0 0 0 -.14 0 3.7257 3.7257 0 0 1 -5.27-5.26.09664.09664 0 0 0 0-.14l-4.44-4.44a2.10654 2.10654 0 0 0 -2.99-.02c-2.5 2.5-5.18006 5.18-7.95 7.95a1.006 1.006 0 0 1 -.28.8.982.982 0 0 1 -.71.29c-.03 0-.06-.01-.09-.01-5.05 5.05-10.39 10.39-15.52 15.52h30.91a.996.996 0 0 1 1.67-.95l.71.71a1.07686 1.07686 0 0 1 .18.24h1.13l7.25-7.25a2.12764 2.12764 0 0 0 -.02-3zm-22.68-2.72a.98218.98218 0 0 1 -.71.29.99835.99835 0 0 1 -.71-.29l-.7-.71a.997.997 0 0 1 1.41-1.41l.71.71a.99587.99587 0 0 1 0 1.41zm2.83 2.83a1.01409 1.01409 0 0 1 -1.42 0l-.7-.71a.97838.97838 0 0 1 0-1.41.99591.99591 0 0 1 1.41 0l.71.7a1.008 1.008 0 0 1 0 1.42zm2.83 2.83a1.04228 1.04228 0 0 1 -.71.29 1.02437 1.02437 0 0 1 -.71-.29l-.71-.71a.99593.99593 0 0 1 0-1.41 1.008 1.008 0 0 1 1.42 0l.71.7a1.00792 1.00792 0 0 1 0 1.42zm2.82 2.83a1.001 1.001 0 0 1 -.7.29 1.02432 1.02432 0 0 1 -.71-.29l-.71-.71a1.00408 1.00408 0 1 1 1.42-1.42l.7.71a1.00789 1.00789 0 0 1 0 1.42zm2.83 2.82a.97833.97833 0 0 1 -1.41 0l-.71-.7a1.00792 1.00792 0 0 1 0-1.42.99581.99581 0 0 1 1.41 0l.71.71a.99588.99588 0 0 1 0 1.41z"/><path d="m25.97607 48.72266a1.44727 1.44727 0 1 0 1.44727 1.44726 1.4487 1.4487 0 0 0 -1.44727-1.44726z"/><path d="m55.71 41.86a.10018.10018 0 0 0 .1-.1v-6.28a2.12117 2.12117 0 0 0 -2.11-2.13h-11.00566v.33752a1 1 0 0 1 -2 0v-.33752h-33.58434a2.11477 2.11477 0 0 0 -2.11 2.13v6.28a.10018.10018 0 0 0 .1.1 3.72274 3.72274 0 0 1 0 7.44.10752.10752 0 0 0 -.1.1v6.29a2.11257 2.11257 0 0 0 2.11 2.12h33.60906a.93658.93658 0 0 1 -.02472-.1225v-1a1 1 0 0 1 2 0v1a.93823.93823 0 0 1 -.02472.1225h11.03038a2.119 2.119 0 0 0 2.11-2.12v-6.29a.10752.10752 0 0 0 -.1-.1 3.72235 3.72235 0 0 1 0-7.44zm-37.68607-4.31312a3.44678 3.44678 0 1 1 -3.44727 3.44726 3.45131 3.45131 0 0 1 3.44727-3.44726zm-2.44776 16.07031a.99977.99977 0 0 1 -.73779-1.67383l12.84668-14.07031a.99955.99955 0 1 1 1.47656 1.34765l-12.84668 14.0703a.99472.99472 0 0 1 -.73877.32619zm10.3999 0a3.44727 3.44727 0 1 1 3.44727-3.44727 3.45131 3.45131 0 0 1 -3.44727 3.44727zm16.71827.07031a1 1 0 0 1 -2 0v-1a1 1 0 0 1 2 0zm0-4a1 1 0 0 1 -2 0v-1a1 1 0 0 1 2 0zm0-4a1 1 0 0 1 -2 0v-1a1 1 0 0 1 2 0zm0-4a1 1 0 0 1 -2 0v-1a1 1 0 0 1 2 0zm0-4a1 1 0 0 1 -2 0v-1a1 1 0 0 1 2 0z"/><path d="m18.02393 42.44043a1.44678 1.44678 0 1 0 -1.44727-1.44629 1.44787 1.44787 0 0 0 1.44727 1.44629z"/></g></svg>