<svg id="Capa_1" enable-background="new 0 0 502.666 502.666" height="512" viewBox="0 0 502.666 502.666" width="512" xmlns="http://www.w3.org/2000/svg"><path d="m430.395 392.471-14.045-2.783v112.978h38.802c8.284 0 15-6.716 15-15v-46.789c-.001-23.556-16.65-43.828-39.757-48.406z"/><path d="m216.067 427.805-30.778-61.296-29.105 5.766c10.241 26.879 32.641 47.376 59.883 55.53z"/><path d="m328.466 372.277-29.112-5.768-30.781 61.305c27.265-8.146 49.656-28.64 59.893-55.537z"/><path d="m14.493 440.878v46.788c0 8.284 6.716 15 15 15h38.802v-112.978l-14.044 2.782c-23.108 4.579-39.758 24.851-39.758 48.408z"/><path d="m242.322 461.667c-52.865 0-99.489-34.353-115.893-83.496l-28.135 5.574v118.921h288.056v-118.921l-28.132-5.573c-16.396 49.162-62.967 83.495-115.896 83.495z"/><path d="m381.231 158.556h-19.446v35.371h12.951c10.086 0 18.292-8.206 18.292-18.292 0-7.797-4.912-14.452-11.797-17.079z"/><path d="m122.859 193.927v-36.584h-12.951c-10.086 0-18.292 8.206-18.292 18.292s8.206 18.292 18.292 18.292z"/><path d="m152.861 158.556.001 50.371c-.041 8.22.563 15.884 1.894 23.17l82.889-27.197c3.039-.998 6.314-.998 9.354 0l82.893 27.199c1.326-7.265 1.928-14.906 1.887-23.097l.003-50.446z"/><path d="m224.03 91.973h36.584v36.583h-36.584z"/><path d="m319.185 260.158-76.863-25.22-76.865 25.22 76.865 153.081z"/><path d="m473.173 97.653h-130.101c-1.671-54.13-46.221-97.653-100.75-97.653-55.583 0-100.804 45.221-100.804 100.804v26.85h52.512v-50.681c0-8.284 6.716-15 15-15h66.584c8.284 0 15 6.716 15 15v50.681h182.559c8.284 0 15-6.716 15-15s-6.716-15.001-15-15.001z"/></svg>