<svg height="512" viewBox="0 0 512 512" width="512" xmlns="http://www.w3.org/2000/svg"><g id="China"><path d="m329.58 18.38h-147.142c-90.46 0-164.056 73.587-164.056 164.039v147.159c0 90.452 73.596 164.039 164.056 164.039h147.142c90.451 0 164.039-73.587 164.039-164.039v-147.159c0-90.451-73.588-164.039-164.039-164.039z" fill="#d90028"/><path d="m18.424 329.503v-147.009c0-90.567 73.505-164.072 164.072-164.072h56.945c-44.611 8.96-165.086 43.596-183.337 154.443l-.842 180.796s4.39 73.678 37.005 112.877c-44.438-29.397-73.843-79.751-73.843-137.035z" fill="#fff" opacity=".22"/><path d="m493.578 182.494v147.009c0 90.567-73.506 164.072-164.072 164.072h-147.01c-19.266 0-37.681-3.383-54.916-9.463l148.189-12.673c153.09-21.122 159.006-124.535 159.006-124.535l-.677-179.616s-3.209-105.608-130.45-148.866h25.857c90.567 0 164.073 73.504 164.073 164.072z" fill="#160204" opacity=".13"/><g fill="#ffda44"><g><path d="m277.145 382.304 12.246-8.51 11.662 8.465c1.285.934 3.026.938 4.316.011 1.291-.928 1.842-2.577 1.368-4.095l-4.336-13.873 11.837-9.054c1.256-.959 1.76-2.612 1.254-4.11-.508-1.497-1.913-2.504-3.493-2.504h-14.365l-4.836-13.295s-.747-2.388-3.507-2.426c-1.564-.022-2.949 1.023-3.449 2.506l-4.466 13.215h-14.504c-1.576 0-2.979 1.003-3.488 2.495-.51 1.493-.014 3.145 1.234 4.109l11.431 8.834-4.519 14.076c-.483 1.505.048 3.151 1.317 4.09.001.001 2.074 1.611 4.298.066z"/><path d="m289.334 129.037c1.549-.021 2.935.969 3.464 2.427l4.836 13.294h14.365c1.58 0 2.985 1.008 3.493 2.505.506 1.497.002 3.15-1.254 4.11l-11.837 9.054 4.336 13.872c.474 1.517-.077 3.167-1.368 4.094-1.29.927-3.031.923-4.316-.011l-11.662-8.466-12.246 8.51c-2.316 1.448-4.297-.064-4.297-.064-1.271-.94-1.801-2.585-1.317-4.089l4.519-14.077-11.431-8.835c-1.248-.964-1.744-2.615-1.234-4.108.509-1.492 1.912-2.495 3.488-2.496l14.504.001 4.466-13.215c-.001.001.7-2.469 3.491-2.506z"/></g><g><path d="m334.952 325.429 12.246-8.51 11.662 8.465c1.285.934 3.026.938 4.316.011 1.291-.928 1.843-2.578 1.368-4.095l-4.336-13.873 11.838-9.054c1.255-.959 1.759-2.612 1.252-4.111-.507-1.496-1.912-2.504-3.492-2.504h-14.365l-4.836-13.294s-.95-2.597-3.507-2.427c-1.563.104-2.949 1.023-3.448 2.507l-4.467 13.214h-14.504c-1.576 0-2.979 1.003-3.488 2.495-.51 1.493-.014 3.145 1.234 4.108l11.431 8.834-4.519 14.076c-.483 1.505.048 3.151 1.318 4.091.001.002 2.003 1.661 4.297.067z"/><path d="m334.952 235.303 12.246-8.51 11.662 8.465c1.285.934 3.026.938 4.316.011 1.291-.927 1.843-2.578 1.368-4.094l-4.336-13.873 11.838-9.054c1.255-.96 1.759-2.613 1.252-4.11-.507-1.496-1.912-2.505-3.492-2.505h-14.365l-4.836-13.294s-.825-2.474-3.507-2.427c-1.565.027-2.949 1.023-3.45 2.507l-4.465 13.215-14.504-.001c-1.576.001-2.979 1.004-3.488 2.497-.51 1.493-.014 3.144 1.234 4.108l11.431 8.835-4.519 14.077c-.483 1.504.047 3.149 1.318 4.089.001-.001 2.088 1.599 4.297.064z"/></g><path d="m150.89 331.026 42.183-29.315 40.264 29.228c2.586 1.877 6.085 1.886 8.682.021 2.596-1.865 3.705-5.184 2.751-8.234l-14.944-47.823 40.742-31.159c2.526-1.931 3.539-5.257 2.519-8.268-1.019-3.011-3.844-5.037-7.022-5.037h-49.56l-16.698-45.912c-1.077-2.96-3.913-4.924-7.054-4.88-3.149.036-5.933 2.058-6.939 5.041l-15.456 45.751h-50.088c-3.172 0-5.992 2.018-7.018 5.02-1.023 3.001-.026 6.322 2.483 8.262l39.426 30.472-15.562 48.478c-.971 3.027.094 6.336 2.649 8.227-.001 0 4.237 3.189 8.642.128z"/></g></g></svg>