<svg enable-background="new 0 0 32 32" height="512" viewBox="0 0 32 32" width="512" xmlns="http://www.w3.org/2000/svg"><g id="France"><path d="m20.354 1.938h-8.708c-5.354 0-9.709 4.355-9.709 9.708v8.709c0 5.353 4.355 9.708 9.709 9.708h8.708c5.353 0 9.708-4.355 9.708-9.708v-8.709c.001-5.354-4.355-9.708-9.708-9.708z" fill="#efefef"/><path d="m10.834 1.979c-4.975.415-8.896 4.588-8.896 9.667v8.709c0 5.079 3.922 9.252 8.896 9.667z" fill="#282780"/><path d="m21.166 1.979v28.043c4.974-.415 8.896-4.588 8.896-9.667v-8.709c.001-5.08-3.922-9.253-8.896-9.667z" fill="#ce2b37"/><path d="m30.06 11.65v8.7c0 5.36-4.35 9.71-9.71 9.71h-8.7c-1.141 0-2.23-.2-3.25-.56l8.77-.75c9.061-1.25 9.41-7.37 9.41-7.37l-.04-10.63s-.19-6.25-7.72-8.81h1.529c5.361 0 9.711 4.35 9.711 9.71z" fill="#160204" opacity=".13"/><path d="m1.94 20.35v-8.7c0-5.36 4.35-9.71 9.71-9.71h3.369c-2.64.53-9.77 2.58-10.85 9.14l-.05 10.7s.26 4.36 2.189 6.68c-2.628-1.74-4.368-4.72-4.368-8.11z" fill="#fff" opacity=".2"/></g></svg>