<svg enable-background="new 0 0 32 32" height="512" viewBox="0 0 32 32" width="512" xmlns="http://www.w3.org/2000/svg"><g id="Japan"><path d="m20.354 1.938h-8.708c-5.354 0-9.709 4.355-9.709 9.708v8.709c0 5.353 4.355 9.708 9.709 9.708h8.708c5.353 0 9.708-4.355 9.708-9.708v-8.709c.001-5.354-4.355-9.708-9.708-9.708z" fill="#efefef"/><path d="m16 8.083c-4.365 0-7.916 3.552-7.916 7.917s3.551 7.917 7.916 7.917 7.916-3.552 7.916-7.917-3.551-7.917-7.916-7.917z" fill="#bb002d"/><path d="m17.54 23.77c-.5.1-1.01.15-1.54.15-4.37 0-7.92-3.55-7.92-7.92s3.55-7.92 7.92-7.92c.58 0 1.15.06 1.7.19-3.771.58-6.66 3.84-6.66 7.77 0 3.87 2.81 7.09 6.5 7.73z" fill="#fff" opacity=".17"/><path d="m30.06 11.65v8.7c0 5.36-4.35 9.71-9.71 9.71h-8.7c-1.11 0-2.181-.19-3.17-.53l8.5-.23c9.34-.25 10.619-7.81 10.619-7.81l-.04-10.63s-.699-6.52-8.689-8.92h1.479c5.361 0 9.711 4.35 9.711 9.71z" fill="#160204" opacity=".08"/></g></svg>