<svg enable-background="new 0 0 32 32" height="512" viewBox="0 0 32 32" width="512" xmlns="http://www.w3.org/2000/svg"><g id="Spain"><path d="m20.354 1.938h-8.708c-5.354 0-9.709 4.355-9.709 9.708v8.709c0 5.353 4.355 9.708 9.709 9.708h8.708c5.353 0 9.708-4.355 9.708-9.708v-8.709c.001-5.354-4.355-9.708-9.708-9.708z" fill="#c30b1e"/><path d="m30.06 11.65v8.7c0 .56-.05 1.11-.14 1.65h-27.84c-.09-.54-.14-1.09-.14-1.65v-8.7c0-.56.05-1.11.14-1.65h27.84c.09.54.14 1.09.14 1.65z" fill="#f8bf01"/><path d="m12.516 13.094c0-.414-.336-.75-.75-.75h-4.766c-.414 0-.75.336-.75.75v3.96s.141 2.596 3.161 2.596c2.979-.088 3.104-2.682 3.104-2.682v-3.874z" fill="#c30b1e"/><path d="m12.52 13.09v3.88s-.13 2.59-3.109 2.68c-2.51 0-3.03-1.8-3.141-2.4 1.19.58 4.091 1.72 4.851-.6v-4.31h.649c.41 0 .75.34.75.75z" fill="#160204" opacity=".13"/><path d="m30.06 11.65v8.7c0 5.36-4.35 9.71-9.71 9.71h-8.7c-1.141 0-2.23-.2-3.25-.56l8.77-.75c9.061-1.25 9.41-7.37 9.41-7.37l-.04-10.63s-.19-6.25-7.72-8.81h1.529c5.361 0 9.711 4.35 9.711 9.71z" fill="#160204" opacity=".13"/><path d="m1.94 20.35v-8.7c0-5.36 4.35-9.71 9.71-9.71h3.369c-2.64.53-9.77 2.58-10.85 9.14l-.05 10.7s.26 4.36 2.189 6.68c-2.628-1.74-4.368-4.72-4.368-8.11z" fill="#fff" opacity=".2"/></g></svg>