<svg enable-background="new 0 0 32 32" height="512" viewBox="0 0 32 32" width="512" xmlns="http://www.w3.org/2000/svg"><g id="Thailand"><path d="m20.354 1.938h-8.708c-5.354 0-9.709 4.355-9.709 9.708v8.709c0 5.353 4.355 9.708 9.709 9.708h8.708c5.353 0 9.708-4.355 9.708-9.708v-8.709c.001-5.354-4.355-9.708-9.708-9.708z" fill="#efefef"/><path d="m30.06 11.65v8.7c0 .17 0 .33-.01.5h-28.1c-.01-.17-.01-.33-.01-.5v-8.7c0-.17 0-.33.01-.5h28.1c.01.17.01.33.01.5z" fill="#241d4e"/><path d="m29.144 7.549c-1.549-3.309-4.901-5.612-8.789-5.612h-8.708c-3.889 0-7.241 2.303-8.79 5.612z" fill="#e91c24"/><path d="m2.856 24.451c1.549 3.309 4.901 5.612 8.79 5.612h8.708c3.888 0 7.24-2.303 8.789-5.612z" fill="#e91c24"/><path d="m30.06 11.65v8.7c0 5.36-4.35 9.71-9.71 9.71h-8.7c-1.141 0-2.23-.2-3.25-.56l8.77-.75c9.061-1.25 9.41-7.37 9.41-7.37l-.04-10.63s-.19-6.25-7.72-8.81h1.529c5.361 0 9.711 4.35 9.711 9.71z" fill="#160204" opacity=".15"/><path d="m4.17 11.08-.05 10.7s.26 4.36 2.189 6.68c-2.63-1.74-4.369-4.72-4.369-8.11v-8.7c0-5.36 4.35-9.71 9.71-9.71h3.369c-2.639.53-9.769 2.58-10.849 9.14z" fill="#fff" opacity=".22"/></g></svg>