<svg id="Capa_1" enable-background="new 0 0 512 512" height="512" viewBox="0 0 512 512" width="512" xmlns="http://www.w3.org/2000/svg"><g><path d="m227 452h-60v-272h-60v332h180v-332h-60z"/><path d="m317 180v332h60v-152h135v-180zm135 120h-75v-60h75z"/><path d="m30 0h-30v150h60v-30h-30z"/><path d="m407 120h-30v-120h-30v150h60z"/><path d="m136 120h-30v-30h30v-30h-30v-30h30v-30h-60v150h60z"/><path d="m183.639 150h39.722l30.955-143.586c.454-2.104.684-4.262.684-6.414l-30.01.091-21.489 99.676-21.501-99.767h-30c0 2.152.23 4.31.684 6.413z"/><path d="m331 120h-30v-30h30v-30h-30v-30h30v-30h-60v150h60z"/></g></svg>