<svg id="layer_1" enable-background="new 0 0 32 32" height="512" viewBox="0 0 32 32" width="512" xmlns="http://www.w3.org/2000/svg"><path d="m28.9638672 15h-1.2595215c-.2258911-2.6598511-1.3490601-5.257019-3.380127-7.2880859-2.0300903-2.0300903-4.6256714-3.1530762-7.2841797-3.3795776v-1.3323365c0-.5527344-.4472656-1-1-1s-1 .4472656-1 1v1.3320312c-2.6611938.2251587-5.2599487 1.3482666-7.2919922 3.3798828-2.0310668 2.031067-3.1541747 4.6282349-3.3800658 7.288086h-1.3318482c-.5527344 0-1 .4472656-1 1s.4472656 1 1 1h1.3318482c.2258911 2.6598511 1.348999 5.257019 3.3800659 7.2880859 2.0320435 2.0320435 4.6311035 3.1551514 7.2919922 3.380249v1.3316651c0 .5527344.4472656 1 1 1s1-.4472656 1-1v-1.3320312c2.6587524-.2266235 5.2540894-1.3497925 7.2841797-3.3798828 2.0310668-2.031067 3.1542358-4.6282349 3.3801269-7.288086h1.2595215c.5527344 0 1-.4472656 1-1s-.4472656-1-1-1zm-6.053711 7.8740234c-1.6395874 1.6395874-3.7249756 2.5665283-5.8701172 2.7871704v-1.218811c0-.5527344-.4472656-1-1-1s-1 .4472656-1 1v1.2197266c-2.147522-.2194214-4.2358398-1.1468506-5.8779297-2.7880859-1.640808-1.6408082-2.5682372-3.7277222-2.78833-5.8740235h1.2199707c.5527344 0 1-.4472656 1-1s-.4472656-1-1-1h-1.2199707c.2200928-2.1463013 1.147522-4.2332153 2.7883301-5.8740234 1.6420898-1.6420898 3.7304077-2.5696411 5.8779297-2.7889404v1.2205811c0 .5527344.4472656 1 1 1s1-.4472656 1-1v-1.2194825c2.1451416.2208862 4.2305298 1.1482544 5.8701172 2.7878418 1.6408081 1.6408081 2.5682373 3.7277221 2.78833 5.8740234h-1.2922363c-.5527344 0-1 .4472656-1 1s.4472656 1 1 1h1.2922363c-.2200927 2.1463013-1.1475219 4.2332153-2.7883301 5.8740234z"/><circle cx="16.036" cy="16" r="5"/></svg>